<svg xmlns="http://www.w3.org/2000/svg" width="58.81" height="49.983" viewBox="0 0 58.81 49.983"><defs><style>.a{fill:none;stroke:#fff;stroke-linecap:round;stroke-linejoin:round;stroke-width:3px;}</style></defs><g transform="translate(1.5 1.5)"><path class="a" d="M563,2595c-7.387-1.285-11.392-7.536-11.392-15.151,0-8.542,5.87-15.393,13.528-15.393h14.033c7.656,0,13.864,7.012,13.864,15.556s-6.209,15.509-13.864,15.509h-4.421L563,2606.078Z" transform="translate(-551.608 -2564.459)"/><path class="a" d="M565.86,2590.506c1.7,3.2,4.872,5.758,8.517,5.758h3.807l6.336,6.334v-6.885c4.924-.186,9.575-5.019,9.575-10.961,0-6.056-4.371-10.83-9.8-10.83" transform="translate(-538.286 -2555.615)"/><path class="a" d="M565.5,2581.033" transform="translate(-538.619 -2548.968)"/><line class="a" x2="19.348" transform="translate(11.374 9.751)"/><line class="a" x2="19.348" transform="translate(11.374 15.556)"/><line class="a" x2="9.7" transform="translate(11.374 21.36)"/></g></svg>