<svg xmlns="http://www.w3.org/2000/svg" width="59.836" height="40.564" viewBox="0 0 59.836 40.564"><defs><style>.a{fill:none;stroke:#fff;stroke-linecap:round;stroke-linejoin:round;stroke-width:3px;}</style></defs><g transform="translate(-1810.163 -3467.029)"><line class="a" y2="9.515" transform="translate(1815.372 3490.451)"/><path class="a" d="M1817.917,3489.07a1.478,1.478,0,0,1-1.475,1.481h-2.911a1.478,1.478,0,0,1-1.474-1.481l.7-3.166a1.477,1.477,0,0,1,1.476-1.48h1.519a1.475,1.475,0,0,1,1.473,1.48Z" transform="translate(0.386 15.542)"/><path class="a" d="M1821.137,3468.53h39.707l7.655,17.736h-56.836Z" transform="translate(0 0)"/><path class="a" d="M1821.778,3477.5l-3.281,14.346c0,3.515,6.71,5.482,14.987,5.482s14.99-1.967,14.99-5.482l-3.283-14.346" transform="translate(6.682 8.768)"/><line class="a" x2="22.259" transform="translate(1817.052 3476.324)"/></g></svg>