<svg xmlns="http://www.w3.org/2000/svg" xmlns:xlink="http://www.w3.org/1999/xlink" width="173.575" height="144" viewBox="0 0 173.575 144"><defs><style>.a{fill:none;}.b{clip-path:url(#a);}.c{fill:#ffc627;}</style><clipPath id="a"><rect class="a" width="173.575" height="144"/></clipPath></defs><g class="b"><g transform="translate(-195.095 -83.754)"><circle class="c" cx="4.42" cy="4.42" r="4.42" transform="translate(195.095 70.754)"/><circle class="c" cx="4.42" cy="4.42" r="4.42" transform="translate(221.007 70.754)"/><path class="c" d="M247.662,88.175a4.421,4.421,0,1,1-4.421-4.421A4.42,4.42,0,0,1,247.662,88.175Z" transform="translate(8.096 -13)"/><path class="c" d="M269.525,88.175a4.421,4.421,0,1,1-4.421-4.421A4.42,4.42,0,0,1,269.525,88.175Z" transform="translate(12.144 -13)"/><path class="c" d="M203.936,128.7a4.421,4.421,0,1,1-4.421-4.421A4.421,4.421,0,0,1,203.936,128.7Z" transform="translate(0 -5.496)"/><path class="c" d="M225.8,128.7a4.421,4.421,0,1,1-4.421-4.421A4.421,4.421,0,0,1,225.8,128.7Z" transform="translate(4.048 -5.496)"/><path class="c" d="M247.662,128.7a4.421,4.421,0,1,1-4.421-4.421A4.421,4.421,0,0,1,247.662,128.7Z" transform="translate(8.096 -5.496)"/><path class="c" d="M269.525,128.7a4.421,4.421,0,1,1-4.421-4.421A4.421,4.421,0,0,1,269.525,128.7Z" transform="translate(12.144 -5.496)"/><circle class="c" cx="4.42" cy="4.42" r="4.42" transform="translate(195.095 142.913)"/><circle class="c" cx="4.42" cy="4.42" r="4.42" transform="translate(221.007 142.913)"/><path class="c" d="M247.662,149.059a4.421,4.421,0,1,1-4.421-4.419A4.421,4.421,0,0,1,247.662,149.059Z" transform="translate(8.096 -1.726)"/><path class="c" d="M269.525,149.059a4.421,4.421,0,1,1-4.421-4.419A4.421,4.421,0,0,1,269.525,149.059Z" transform="translate(12.144 -1.726)"/><path class="c" d="M203.936,108.436a4.421,4.421,0,1,1-4.421-4.419A4.421,4.421,0,0,1,203.936,108.436Z" transform="translate(0 -9.248)"/><path class="c" d="M225.8,108.436a4.421,4.421,0,1,1-4.421-4.419A4.421,4.421,0,0,1,225.8,108.436Z" transform="translate(4.048 -9.248)"/><path class="c" d="M247.662,108.436a4.421,4.421,0,1,1-4.421-4.419A4.421,4.421,0,0,1,247.662,108.436Z" transform="translate(8.096 -9.248)"/><path class="c" d="M269.525,108.436a4.421,4.421,0,1,1-4.421-4.419A4.421,4.421,0,0,1,269.525,108.436Z" transform="translate(12.144 -9.248)"/></g><g transform="translate(-88.095 -83.754)"><circle class="c" cx="4.42" cy="4.42" r="4.42" transform="translate(195.095 70.754)"/><circle class="c" cx="4.42" cy="4.42" r="4.42" transform="translate(221.007 70.754)"/><path class="c" d="M247.662,88.175a4.421,4.421,0,1,1-4.421-4.421A4.42,4.42,0,0,1,247.662,88.175Z" transform="translate(8.096 -13)"/><path class="c" d="M269.525,88.175a4.421,4.421,0,1,1-4.421-4.421A4.42,4.42,0,0,1,269.525,88.175Z" transform="translate(12.144 -13)"/><path class="c" d="M203.936,128.7a4.421,4.421,0,1,1-4.421-4.421A4.421,4.421,0,0,1,203.936,128.7Z" transform="translate(0 -5.496)"/><path class="c" d="M225.8,128.7a4.421,4.421,0,1,1-4.421-4.421A4.421,4.421,0,0,1,225.8,128.7Z" transform="translate(4.048 -5.496)"/><path class="c" d="M247.662,128.7a4.421,4.421,0,1,1-4.421-4.421A4.421,4.421,0,0,1,247.662,128.7Z" transform="translate(8.096 -5.496)"/><path class="c" d="M269.525,128.7a4.421,4.421,0,1,1-4.421-4.421A4.421,4.421,0,0,1,269.525,128.7Z" transform="translate(12.144 -5.496)"/><circle class="c" cx="4.42" cy="4.42" r="4.42" transform="translate(195.095 142.913)"/><circle class="c" cx="4.42" cy="4.42" r="4.42" transform="translate(221.007 142.913)"/><path class="c" d="M247.662,149.059a4.421,4.421,0,1,1-4.421-4.419A4.421,4.421,0,0,1,247.662,149.059Z" transform="translate(8.096 -1.726)"/><path class="c" d="M269.525,149.059a4.421,4.421,0,1,1-4.421-4.419A4.421,4.421,0,0,1,269.525,149.059Z" transform="translate(12.144 -1.726)"/><path class="c" d="M203.936,108.436a4.421,4.421,0,1,1-4.421-4.419A4.421,4.421,0,0,1,203.936,108.436Z" transform="translate(0 -9.248)"/><path class="c" d="M225.8,108.436a4.421,4.421,0,1,1-4.421-4.419A4.421,4.421,0,0,1,225.8,108.436Z" transform="translate(4.048 -9.248)"/><path class="c" d="M247.662,108.436a4.421,4.421,0,1,1-4.421-4.419A4.421,4.421,0,0,1,247.662,108.436Z" transform="translate(8.096 -9.248)"/><path class="c" d="M269.525,108.436a4.421,4.421,0,1,1-4.421-4.419A4.421,4.421,0,0,1,269.525,108.436Z" transform="translate(12.144 -9.248)"/></g><g transform="translate(-195.095 13.246)"><circle class="c" cx="4.42" cy="4.42" r="4.42" transform="translate(195.095 70.754)"/><circle class="c" cx="4.42" cy="4.42" r="4.42" transform="translate(221.007 70.754)"/><path class="c" d="M247.662,88.175a4.421,4.421,0,1,1-4.421-4.421A4.42,4.42,0,0,1,247.662,88.175Z" transform="translate(8.096 -13)"/><path class="c" d="M269.525,88.175a4.421,4.421,0,1,1-4.421-4.421A4.42,4.42,0,0,1,269.525,88.175Z" transform="translate(12.144 -13)"/><path class="c" d="M203.936,128.7a4.421,4.421,0,1,1-4.421-4.421A4.421,4.421,0,0,1,203.936,128.7Z" transform="translate(0 -5.496)"/><path class="c" d="M225.8,128.7a4.421,4.421,0,1,1-4.421-4.421A4.421,4.421,0,0,1,225.8,128.7Z" transform="translate(4.048 -5.496)"/><path class="c" d="M247.662,128.7a4.421,4.421,0,1,1-4.421-4.421A4.421,4.421,0,0,1,247.662,128.7Z" transform="translate(8.096 -5.496)"/><path class="c" d="M269.525,128.7a4.421,4.421,0,1,1-4.421-4.421A4.421,4.421,0,0,1,269.525,128.7Z" transform="translate(12.144 -5.496)"/><circle class="c" cx="4.42" cy="4.42" r="4.42" transform="translate(195.095 142.913)"/><circle class="c" cx="4.42" cy="4.42" r="4.42" transform="translate(221.007 142.913)"/><path class="c" d="M247.662,149.059a4.421,4.421,0,1,1-4.421-4.419A4.421,4.421,0,0,1,247.662,149.059Z" transform="translate(8.096 -1.726)"/><path class="c" d="M269.525,149.059a4.421,4.421,0,1,1-4.421-4.419A4.421,4.421,0,0,1,269.525,149.059Z" transform="translate(12.144 -1.726)"/><path class="c" d="M203.936,108.436a4.421,4.421,0,1,1-4.421-4.419A4.421,4.421,0,0,1,203.936,108.436Z" transform="translate(0 -9.248)"/><path class="c" d="M225.8,108.436a4.421,4.421,0,1,1-4.421-4.419A4.421,4.421,0,0,1,225.8,108.436Z" transform="translate(4.048 -9.248)"/><path class="c" d="M247.662,108.436a4.421,4.421,0,1,1-4.421-4.419A4.421,4.421,0,0,1,247.662,108.436Z" transform="translate(8.096 -9.248)"/><path class="c" d="M269.525,108.436a4.421,4.421,0,1,1-4.421-4.419A4.421,4.421,0,0,1,269.525,108.436Z" transform="translate(12.144 -9.248)"/></g><g transform="translate(-88.095 13.246)"><circle class="c" cx="4.42" cy="4.42" r="4.42" transform="translate(195.095 70.754)"/><circle class="c" cx="4.42" cy="4.42" r="4.42" transform="translate(221.007 70.754)"/><path class="c" d="M247.662,88.175a4.421,4.421,0,1,1-4.421-4.421A4.42,4.42,0,0,1,247.662,88.175Z" transform="translate(8.096 -13)"/><path class="c" d="M269.525,88.175a4.421,4.421,0,1,1-4.421-4.421A4.42,4.42,0,0,1,269.525,88.175Z" transform="translate(12.144 -13)"/><path class="c" d="M203.936,128.7a4.421,4.421,0,1,1-4.421-4.421A4.421,4.421,0,0,1,203.936,128.7Z" transform="translate(0 -5.496)"/><path class="c" d="M225.8,128.7a4.421,4.421,0,1,1-4.421-4.421A4.421,4.421,0,0,1,225.8,128.7Z" transform="translate(4.048 -5.496)"/><path class="c" d="M247.662,128.7a4.421,4.421,0,1,1-4.421-4.421A4.421,4.421,0,0,1,247.662,128.7Z" transform="translate(8.096 -5.496)"/><path class="c" d="M269.525,128.7a4.421,4.421,0,1,1-4.421-4.421A4.421,4.421,0,0,1,269.525,128.7Z" transform="translate(12.144 -5.496)"/><circle class="c" cx="4.42" cy="4.42" r="4.42" transform="translate(195.095 142.913)"/><circle class="c" cx="4.42" cy="4.42" r="4.42" transform="translate(221.007 142.913)"/><path class="c" d="M247.662,149.059a4.421,4.421,0,1,1-4.421-4.419A4.421,4.421,0,0,1,247.662,149.059Z" transform="translate(8.096 -1.726)"/><path class="c" d="M269.525,149.059a4.421,4.421,0,1,1-4.421-4.419A4.421,4.421,0,0,1,269.525,149.059Z" transform="translate(12.144 -1.726)"/><path class="c" d="M203.936,108.436a4.421,4.421,0,1,1-4.421-4.419A4.421,4.421,0,0,1,203.936,108.436Z" transform="translate(0 -9.248)"/><path class="c" d="M225.8,108.436a4.421,4.421,0,1,1-4.421-4.419A4.421,4.421,0,0,1,225.8,108.436Z" transform="translate(4.048 -9.248)"/><path class="c" d="M247.662,108.436a4.421,4.421,0,1,1-4.421-4.419A4.421,4.421,0,0,1,247.662,108.436Z" transform="translate(8.096 -9.248)"/><path class="c" d="M269.525,108.436a4.421,4.421,0,1,1-4.421-4.419A4.421,4.421,0,0,1,269.525,108.436Z" transform="translate(12.144 -9.248)"/></g></g></svg>