'<svg xmlns="http://www.w3.org/2000/svg" width="130" height="130" viewBox="0 0 130 130"><defs><style>.a,.d{fill:#1f3933;}.a{font-size:45px;font-family:Roboto-Black, Roboto;font-weight:800;letter-spacing:-0.005em;}.b{fill:none;}.c,.d{stroke:none;}</style></defs><g transform="translate(-587 -1804)"><text class="a" transform="translate(652 1885)"><tspan x="-42.534" y="0">90%</tspan></text><g class="b" transform="translate(587 1804)"><path class="c" d="M65,0A65,65,0,1,1,0,65,65,65,0,0,1,65,0Z"/><path class="d" d="M 65 7 C 33.01869201660156 7 7 33.01869201660156 7 65 C 7 96.98130798339844 33.01869201660156 123 65 123 C 96.98130798339844 123 123 96.98130798339844 123 65 C 123 33.01869201660156 96.98130798339844 7 65 7 M 65 0 C 100.8984985351563 0 130 29.10150146484375 130 65 C 130 100.8984985351563 100.8984985351563 130 65 130 C 29.10150146484375 130 0 100.8984985351563 0 65 C 0 29.10150146484375 29.10150146484375 0 65 0 Z"/></g></g></svg>