<svg xmlns="http://www.w3.org/2000/svg" width="46.906" height="47.165" viewBox="0 0 46.906 47.165"><defs><style>.a{fill:none;stroke:#fff;stroke-linecap:round;stroke-linejoin:round;stroke-width:3px;}</style></defs><g transform="translate(-130.318 -2681.609)"><path class="a" d="M161.129,2708.881a.956.956,0,0,0-1.333-.024s-2.731,2.673-2.912,2.838a.582.582,0,0,1-.15.108c-2.839,1.438-13.087-9.534-11.132-11.6l2.922-2.862a.958.958,0,0,0,.013-1.354l-9.561-9.749a.953.953,0,0,0-.674-.287.963.963,0,0,0-.678.276c-4.787,4.7-12.464,9.426,5.467,27.714,17.7,18.047,22.768,11.207,27.653,5.955a.958.958,0,0,0-.017-1.325Z" transform="translate(0 1.612)"/><path class="a" d="M160.555,2701.044a13.229,13.229,0,0,0-13.69-13.692" transform="translate(8.526 2.4)"/><path class="a" d="M167.193,2703.444a19.858,19.858,0,0,0-20.328-20.329" transform="translate(8.526)"/><path class="a" d="M146.865,2691.592a6.619,6.619,0,0,1,7.054,7.054" transform="translate(8.526 4.797)"/></g></svg>